# xmcd
#
# Track frame offsets:
#	150
#	13645
#	29519
#	45800
#	60505
#	74322
#	88375
#	102357
#	115122
#	131052
#	142748
#	155593
#
# Disc length: 2215 seconds
#
# Revision: 1
# Processed by: cddbd v1.5.1PL0 Copyright (c) Steve Scherf et al.
# Submitted via: audiograbber 1.83.01
#
DISCID=9b08a50c
DTITLE=Alouette River Bluegrass Band - Alouette River Bluegrass Band
DYEAR=2004
DGENRE=Bluegrass
TTITLE0=Waiting for You
TTITLE1=Clinch Mountain Backstep
TTITLE2=Ridge Meadows Man
TTITLE3=Drifting Too Far from the Shore
TTITLE4=Old Slew Foot
TTITLE5=Blue Train
TTITLE6=Alouette River Song
TTITLE7=Little Mountain Church House
TTITLE8=Wind that Shakes the Barley - Swallow Tail Jig
TTITLE9=Waiting at the Gate
TTITLE10=You Plant Your Fields
TTITLE11=Shackles and Chains
EXTD=
EXTT0=
EXTT1=
EXTT2=
EXTT3=
EXTT4=
EXTT5=
EXTT6=
EXTT7=
EXTT8=
EXTT9=
EXTT10=
EXTT11=
PLAYORDER=
